<svg xmlns="http://www.w3.org/2000/svg" width="500" viewBox="0 0 375 375" height="500" version="1.0"><path fill="#fff" d="M-37.5-37.5h450v450h-450z"/><path fill="#fff" d="M-37.5-37.5h450v450h-450z"/><path d="M92.496 253.691c1.594-1.093 3.567-1.523 5.363-1.644a39.023 39.023 0 01-3.02-2.852c-3.706-3.882-7.296-9.101-9.702-15.129-2.418-6.05-3.649-12.918-2.625-20.078 1.136-7.984 5.066-16.308 13.254-24.226l4.246-22.524c1.586-8.414 4.89-16.511 8.52-23.394 4.84-9.184 10.44-16.317 13.335-19.23-1.094-15.856 3.988-26.325 10.274-39.25.59-1.22 1.195-2.458 1.785-3.688-5.04-.57-10.547-3.98-15.094-9.11a40.569 40.569 0 01-6.387-9.754c-1.695-3.644-2.882-7.628-3.316-11.761-1-9.477 1.945-19.684 11.71-28.328 23.497-20.801 43.981-10.434 49.122-7.23 2.394-3.044 10.855-9.798 39.586-12.411 33.215-3.016 55.363 19.89 59.937 25.094 4.157-2.895 20.012-11.086 51.989 3.304a71.309 71.309 0 016.152 3.125c15.125 8.633 24.313 21.454 28.234 35.418 3.918 13.95 2.57 29.032-3.375 42.215a64.813 64.813 0 01-2.734 5.367v.004c-14.512 25.368-42.086 23.364-48.535 22.512-.438 2.09-1.59 6.574-4.504 13.91-3.629 9.14-10.04 18.27-11.8 20.703.57 2.442 1.273 8.582-.669 21.903-2.32 15.945-8.902 24.324-10.844 26.496.727 3.379 3.18 17.8-4.171 31.613 1.687 1.723 4.93 6.172 3.847 14.168-.199 1.461-.691 2.992-1.437 4.555 2.105 1.27 5.437 4.664 3.578 13.027-.04.18-.074.324-.102.434h-.004c-1.437 5.468-7.472 12.324-15.738 17.175-7.812 4.586-17.664 7.45-27.547 5.739 4.649 8.96 8.5 11.77 17.192 10.168-14.403 12.476-19.313 14.578-41.711 16.562-24.746.86-41.133-13.832-45.785-18.601-1.59 2.699-3.668 4.957-5.997 6.457-.777.5-1.585.914-2.414 1.238h-.004c-3.57 1.39-8.218 1.848-12.992 1.312-4.578-.511-9.304-1.94-13.32-4.34-2.04-1.218-3.898-2.683-5.465-4.41-3.789 6.266-9.68 9.938-16.34 11.832-9.32 2.653-20.164 1.797-28.761-.265l.07-.285c-1.277.363-2.586.68-3.926.937-12.012 2.297-26.305-.086-39.867-15.062a78.618 78.618 0 01-1.473-1.676c-5.61-6.606-9.527-13.418-11.898-20.195-3.41-9.739-3.617-19.391-1.043-28.246 2.226-7.672 6.539-14.735 12.656-20.727-.504-1.25-1.05-3.207-1.723-5.598a256.912 256.912 0 00-1.992-6.863c-.504-1.633-1.265-3.473-2.054-5.375-2.075-5.008-4.329-10.453-3.133-14.844a12.156 12.156 0 012.746-5.031c1.273-1.379 2.887-2.441 4.77-3 1.867-.55 3.98-.605 6.269.016 2.555.691 5.332 2.234 8.219 4.886 10.27 9.434 12.332 17.332 12.707 20.84 2.898-.64 6.562-.722 9.918-.023 2.523.527 4.906 1.492 6.71 2.984 1.907 1.578 3.172 3.719 3.325 6.516.07 1.258-.094 2.644-.54 4.16 3.38-1.23 8.614-1.582 13.485 4.527 1.7 2.133 2.621 4.133 3.04 5.953zm0 0"/><path fill="#fbfcfc" d="M152.82 94.637c.89-3.528 3.68-15.442 1.184-16.961-.613-.375-1.352-.254-2.027.168-.48.297-.926.738-1.293 1.265a5.426 5.426 0 00-.817 1.84c-.312 1.371-.023 2.91 1.317 4.11-3.813-.204-5.352-3.805-2.778-7.52.582-.84 1.309-1.55 2.11-2.047 1.527-.953 3.304-1.164 4.93-.176 3.804 2.313 1.363 14.48.257 19.172 12.762-.511 29.363.754 49.285 6.41 1.895-3.164 8.59-14.984 4.79-18.191-3.626-3.055-5.583 4.75-5.587 4.773-4.113-3.859 1.871-11.527 7.375-6.882 5.168 4.355-1.375 16.84-3.836 21.097 15.395 4.614 32.7 11.832 51.68 22.813 1.328.77 2.668 1.555 4.016 2.363 2.027-4.512 8.664-17.93 16.926-20.582 10.808-3.469 8.277 5.281 4.812 5.754.008-.012 2.375-5.156-3.969-3.121-7.41 2.379-13.675 15.516-15.382 19.39a346.187 346.187 0 0112.421 7.961 388.282 388.282 0 0117.52 12.493c2.61-7.25 2.957-10.368 2.96-10.38l.173-1.464 1.453.266c.09.019 31.508 6.136 47-20.954h.004a60.315 60.315 0 002.617-5.132c5.68-12.606 6.973-27.016 3.23-40.332-3.734-13.297-12.5-25.516-26.941-33.762a69.232 69.232 0 00-5.914-3.004c-36.125-16.258-50.074-2.945-50.113-2.906l-1.086 1-.93-1.153c-.066-.082-22.523-28.37-58.41-25.11-8.84.802-35.16 2.786-38.692 13.864l-1.55-1.152c-.063-.047-21.422-16.293-46.883 6.246-8.988 7.953-11.703 17.309-10.793 25.977.402 3.808 1.504 7.496 3.082 10.886a37.857 37.857 0 005.941 9.082c3.168 3.575 6.79 6.223 10.266 7.469 2.293.82 5.016 1.309 6.656 1.7a470.124 470.124 0 01-3.191 6.66c-2.094 4.312-4.055 8.343-5.68 12.39 4.035-1.36 12.152-3.574 23.867-4.32zm0 0"/><path fill="#e5e7e9" d="M152.82 94.637c.89-3.528 3.68-15.442 1.184-16.961-.613-.375-1.352-.254-2.027.168-.48.297-.926.738-1.293 1.265a5.426 5.426 0 00-.817 1.84c-.312 1.371-.023 2.91 1.317 4.11-3.813-.204-5.352-3.805-2.778-7.52.582-.84 1.309-1.55 2.11-2.047 1.527-.953 3.304-1.164 4.93-.176 3.804 2.313 1.363 14.48.257 19.172.836-.031 1.684-.058 2.55-.078 1.24-4.07 4.118-14.816 1.267-18.555-3.547-4.648-13.407-5.644-14.07 1.774-.669 7.418 6.534 9.742 6.534 9.742l-2.289 7.508c1.012-.09 2.051-.172 3.125-.242zm49.73 5.586c.81.218 1.622.441 2.442.675 1.89-3.164 8.586-14.984 4.785-18.191-3.625-3.055-5.582 4.75-5.586 4.773-4.113-3.859 1.871-11.527 7.375-6.882 5.168 4.355-1.375 16.84-3.836 21.097 1.665.5 3.352 1.028 5.06 1.59 1.472-4.64 4.745-16.5 1.69-22.777-3.765-7.75-14.183-4.543-13.515 3.207.664 7.75 3.605 2.539 4.543 7.308.601 3.082-1.473 7.028-2.957 9.2zm57.954 24.922c.969.562 1.941 1.14 2.922 1.726 2.027-4.512 8.664-17.93 16.926-20.582 10.808-3.469 8.28 5.281 4.816 5.754.004-.012 2.371-5.156-3.973-3.121-7.41 2.379-13.675 15.516-15.382 19.39.792.485 1.59.973 2.386 1.473 1.938-3.629 7.192-13.133 10.664-16.066 4.32-3.653 5.871 4.539 5.871 4.539s6.54-3.32 6.762-11.293c.219-7.969-10.418-10.738-18.84-2.988-6.414 5.906-10.648 16.644-12.152 21.168zM155.066 13.121c-8.476-1.098-19.945.649-32.394 11.672-8.988 7.953-11.703 17.309-10.79 25.977.4 3.808 1.5 7.496 3.079 10.886a37.975 37.975 0 005.941 9.082c2.996 3.38 6.399 5.93 9.696 7.25-1.578-4.465-16.004-20.87-5.977-39.886 10.875-20.618 43.215-13.95 44.766-13.95-4.352-4.855-9.215-8.476-14.32-11.03zm143.821 123.801l1.453.266c.09.019 31.508 6.136 47.004-20.954a60.315 60.315 0 002.617-5.132c5.684-12.606 6.973-27.016 3.234-40.332-3.734-13.297-12.504-25.516-26.945-33.762a69.232 69.232 0 00-5.914-3.004c-11.617-5.23-20.938-7.399-28.242-7.934 18.316 11.008 45.183 31.735 42.234 57.367-4.43 38.528-35.441 53.485-35.441 53.485zm0 0"/><path fill="#fbfcfc" d="M283.297 172.238c2.273-3.21 7.672-11.23 10.848-19.226.207-.528.41-1.043.601-1.54a389.074 389.074 0 00-18.05-12.902 327.267 327.267 0 00-18.673-11.668c-76.343-44.164-124.722-26.816-130.355-24.53-2.191 6.273-3.469 12.784-3.117 20.616 53.398-11.832 116.902 14.836 158.746 49.25zm0 0"/><path fill="#e5e7e9" d="M283.297 172.238c2.082-2.937 6.777-9.906 9.992-17.195-58.535-50.008-99.742-49.406-99.742-49.406s16.621 2.433 45.207 22.14c28.59 19.707 29.035 26.352 29.035 26.352-43.82-30.649-91.3-48.852-143.129-37.926a54.708 54.708 0 00-.11 6.785c53.4-11.832 116.903 14.836 158.747 49.25zm0 0"/><path fill="#6e2c00" d="M275.047 216.016c2.363-4.133 5.117-10.606 6.453-19.77 2.262-15.543.98-20.394.605-21.398-2.132-1.79-18.574-15.313-42.972-28.133 2.238 5.234 5.004 14.851 3.605 28.613-1.75 17.227-6.21 27.938-7.953 31.578l9.203 3.653c1.106-4.93 3.438-10.414 6.977-14.352 3.191-3.55 7.347-5.867 12.46-5.508h.009c1.48.106 2.812.395 4.003.84 3.711 1.379 5.965 4.211 7.208 7.715 1.183 3.336 1.433 7.273 1.164 11.094a46.988 46.988 0 01-.762 5.668zm0 0"/><path fill="#5e2804" d="M282.602 186.477c.574-7.961-.215-10.875-.497-11.63-2.132-1.788-18.574-15.312-42.972-28.132a45.456 45.456 0 012.082 6.086c4.472 2.414 20.789 13.562 31 22.887 3.781 3.453 7.324 7.242 10.387 10.789zm0 0"/><path fill="#fcbd88" d="M124.398 125.848c-1.257.597-7.628 8.3-13.418 19.285-3.52 6.676-6.718 14.508-8.246 22.613l-4.332 22.961-.406.746c-7.902 7.531-11.672 15.406-12.742 22.926-.95 6.644.2 13.031 2.453 18.668 2.262 5.664 5.64 10.578 9.14 14.242 3.7 3.879 7.454 6.305 10.048 6.676l.93.129.222.914c1.914 7.898 5.8 13.933 10.945 18.43 7.285 6.367 17.125 9.695 27.488 10.867 10.465 1.187 21.438.183 30.883-2.102 10.422-2.52 18.918-6.562 22.711-10.894l.75-.856.985.57c.07.04 24.093 14.297 50.355-2.218 20.36-12.809 20.152-33.403 19.063-41.895a27.327 27.327 0 01-2.059 3.07c-2.168 2.79-4.863 5.083-7.879 6.383v-.004c-3.457 1.493-12.266 1.047-12.773-4.367 1.25.973 2.496 1.664 3.722 2.113 2.774 1.016 5.489.786 7.957-.285v-.004c2.559-1.105 4.883-3.097 6.782-5.539 3.953-5.082 5.62-11.816 6.066-18.125.246-3.484.035-7.039-1.008-9.976-.984-2.77-2.726-4.992-5.562-6.051-.938-.348-2.012-.578-3.235-.664-4.14-.29-7.558 1.644-10.215 4.598-3.562 3.968-5.789 9.738-6.632 14.632l-.29 1.68-1.585-.633-12.157-4.824-1.464-.582.765-1.371c.02-.031 6.188-10.902 8.324-31.906 1.75-17.23-3.214-27.45-4.972-30.457-29.766-14.97-70.09-28.004-110.614-18.75zm3.145 61.996l-.027.011c1.379.696 2.832 2.168 2.027 4.715a7.707 7.707 0 01-.176-.18c-7.969-7.964-24.625-2.144-25.68-2.23 3.747-3.344 7.61-4.25 12.66-4.508-.85-.925-1.652-2.09-2.363-3.535-2.765-5.644-.953-12.422 2.633-16.98 1.176-1.492 2.547-2.758 4.016-3.68 1.527-.957 3.168-1.547 4.812-1.648 3.25-.196 6.422 1.457 8.72 5.855 1.581 3.027 1.698 6.652.92 10.145-.929 4.203-3.398 10.004-7.542 12.035zm71.25-6.27c-5.836-.777-13.367-1.48-18.29.281 7.075.184 14.704 4.48 18.29 11.2-11.738-10.164-36.313-7.442-38.121-4.805 7.969-11.633 30.164-12.023 43.683-6.148zm70.125 23.754c-.016-.02-4.926-7.34-11.578-2.176-1.395 1.082-2.516 2.41-3.395 3.875a17.164 17.164 0 00-1.367 2.86c7.508-4.742 11.477 5.492 9.082 9.46-.012-.038-3.867-12.91-10.336-4.202a24.748 24.748 0 00-.129 4.468c.317 5.078 3.332 11.477 8.094 4.657 3.113 4.695-9.8 12.37-10.86-4.48a27.517 27.517 0 01.669-7.977c.511-2.145 1.312-4.27 2.472-6.204 1.055-1.757 2.399-3.347 4.067-4.644 6.05-4.695 13.812-1.207 13.281 4.363zm-106.3 38.606c-2.704 3.746-6.52 6.968-10.825 8.984-4.195 1.96-8.86 2.785-13.445 1.86-2.668-.54-5.426-1.563-7.977-3.005-2.426-1.367-4.664-3.105-6.469-5.148a19.536 19.536 0 01-2.34-3.27v-.003a17.65 17.65 0 01-1.183-2.559c-2.582-.102-5.504-.508-8.828-1.379-9.684-2.539-17.383-10.508-15.485-20.777 3.614 3.008 4.555 4.71 9.625 6.851 2.778 1.176 5.461 1.512 7.84 1.274 2.703-.27 4.992-1.278 6.531-2.617 1.43-1.247 3.067-2.032 4.524-2.532-1.559-1.156-2.824-2.703-3.559-4.586-.59-1.504-.843-3.214-.636-5.093.898-8.215 5.265-10.926 9.757-13.715 1.68-1.04 3.375-2.094 4.825-3.453 4.625-4.328 1.172-12.586 1.164-12.614 5.691 4.895 3.758 11.801.734 14.63-1.66 1.554-3.469 2.679-5.258 3.788-3.914 2.43-7.718 4.79-8.468 11.657-.157 1.418.027 2.687.46 3.796.575 1.461 1.59 2.653 2.844 3.524a9.615 9.615 0 004.387 1.617c1.414.152 2.855-.004 4.168-.516 1.293-.507 2.332-1.078 3.226-1.574 3.676-2.023 5.442-2.996 11.961 2.649a5.215 5.215 0 002.434 1.195c1.086.207 2.215.066 3.262-.336a7.149 7.149 0 002.82-1.977c.703-.808 1.211-1.78 1.414-2.84.8-4.167-1.266-5.16-1.27-5.163 3.528-.032 4.485 3.12 3.993 5.683-.301 1.555-1.031 2.965-2.043 4.13l-.13.144c.145.105.294.218.446.34 1.328 1.019 3.446 2.648 8.914 3.066 9.29.715 18.008-3.059 26.801-5.352-3.676 10.168-14.207 19.422-24.46 22.211-3.302.899-6.587 1.2-9.755 1.11zm0 0"/><path fill="#f2a668" d="M105.422 189.797c3.625-.098 17.02-.711 24.121 2.773a7.707 7.707 0 01-.176-.18c-6.633-6.628-19.281-3.71-23.945-2.593zm17.73 24.418c1.875 2.316 5.883 6.02 11.438 4.457 7.867-2.215 8.586-3.82 14.347-.942 5.762 2.88 9.989 1.778 11.145-3.398.238.781.336 1.89.04 3.434-.204 1.058-.712 2.03-1.415 2.84a7.149 7.149 0 01-2.82 1.976c-1.047.402-2.18.543-3.262.336a5.215 5.215 0 01-2.434-1.195c-6.52-5.645-8.285-4.672-11.96-2.649-.899.496-1.934 1.067-3.231 1.574-1.309.512-2.75.668-4.164.516a9.615 9.615 0 01-4.387-1.617c-1.254-.871-2.27-2.063-2.844-3.524a7.439 7.439 0 01-.453-1.808zm143.653-11.105c.203.449.367.964.48 1.558.828 4.484-1.664 8.36-1.664 8.36s-.402-2.684-3.766-3.266c-.8-.14-1.421.07-1.894.508-1.695-1.723-4.227-2.38-7.383-.383.371-.996.824-1.957 1.367-2.86.88-1.464 2-2.793 3.395-3.875 4.027-3.125 7.418-1.675 9.465-.043zm-8.055 10.663c-.074 1.403.125 2.91.5 4.07.645 2.009-.547 6.856-2.734 9.114-3.141 1.488-5.07-3.336-5.325-7.344a25.12 25.12 0 01.13-4.468c3.136-4.22 5.66-3.372 7.429-1.372zm-65.5-10.628c-5.324-2.622-17.945-7.52-31.45-6.34 6.063-2.899 18.009-5.856 31.45 6.34zm2.234 20.582c3.243 20.027-15.898 25.68-32.273 23.32 0 0-5.211 12.07-20.613 11.293-9.946-.5-15.293-6.563-17.832-10.797 1.632 1.648 3.554 3.074 5.605 4.23 2.55 1.442 5.309 2.465 7.977 3.004 4.586.926 9.25.102 13.441-1.859 4.309-2.016 8.125-5.238 10.828-8.984 3.168.09 6.453-.211 9.754-1.11 9.195-2.5 18.613-10.203 23.113-19.097zm-73.875 19.71c-4.246-.132-18.468-1.41-22.8-12.386 2.87 4.043 7.52 6.992 12.742 8.363 3.324.871 6.246 1.277 8.828 1.379a17.65 17.65 0 001.183 2.559v.003zm0 0"/><path fill="#f2a668" d="M85.082 215.813c-.605 6.128.531 12.003 2.625 17.234 2.262 5.664 5.64 10.578 9.14 14.242 3.7 3.879 7.454 6.305 10.048 6.676l.93.129.222.914c1.914 7.898 5.8 13.933 10.945 18.43 7.285 6.367 17.125 9.695 27.488 10.867 10.465 1.187 21.438.183 30.883-2.102 10.422-2.52 18.918-6.562 22.711-10.894l.75-.856.985.57c.07.04 24.093 14.297 50.351-2.218 20.363-12.809 20.156-33.403 19.067-41.895a26.837 26.837 0 01-2.063 3.07c-.355.461-.73.91-1.117 1.34-.324 5.067-3.961 22.024-14.61 29.34-12.414 8.524-23.824 11.184-35.46 7.973-11.633-3.211-15.625-7.086-15.625-7.086s-28.29 23.683-58.727 14.504c-30.441-9.184-30.805-25.91-30.805-25.91s-21.418-5.114-27.738-34.328zm0 0"/><path fill="#f2a668" d="M248.531 232.004c1.246.965 2.489 1.656 3.703 2.101 2.778 1.016 5.493.782 7.961-.285v-.004c2.559-1.105 4.883-3.097 6.782-5.539 3.953-5.082 5.62-11.816 6.066-18.125.246-3.484.035-7.039-1.008-9.976-.984-2.77-2.726-4.992-5.562-6.051a10.536 10.536 0 00-1.239-.371c2.672 2.726 5.668 7.047 6.43 13.848 1.441 12.843-8.754 24.578-15.07 24.246-6.317-.332-8.645-4.098-8.645-4.098s-.262 2.164.578 4.254zM124.398 125.848c-.523.25-1.937 1.734-3.824 4.175 22.399-3.683 64.844-4.828 117.434 21.575-1.09-3.465-2.297-5.805-2.996-7-29.766-14.97-70.09-28.004-110.614-18.75zm0 0"/><path fill="#c0392b" d="M139.117 291.633c-2.308-2.121-4.652-3.215-6.87-3.465a8.877 8.877 0 00-4.13.52c-1.328.5-2.578 1.312-3.695 2.382-2.73 2.618-4.688 6.743-5.242 11.668-.364 3.227.035 6.063.992 8.52 1.516 3.879 4.453 6.867 8.043 9.012 3.656 2.183 7.988 3.488 12.203 3.96 4.344.489 8.531.09 11.684-1.136v-.004c.656-.254 1.3-.586 1.925-.988 2.957-1.903 5.461-5.301 6.832-9.286 1.371-3.992 1.586-8.539-.047-12.722a16.404 16.404 0 00-1.496-2.922 17.617 17.617 0 00-1.996-2.543 19.725 19.725 0 00-2.547-2.246c-2.605-1.942-4.988-2.707-7.097-2.586-2.336.133-4.414 1.36-6.133 3.258-2.652 2.93-4.461 8-5.55 11.71-.38-4.374-.942-8.331 3.124-13.132zm0 0"/><path fill="#922b21" d="M122.57 293.242c-1.75 2.504-2.972 5.77-3.39 9.496-.364 3.227.035 6.063.992 8.52 1.516 3.879 4.453 6.867 8.043 9.012 3.656 2.183 7.988 3.488 12.203 3.96 4.344.489 8.531.09 11.684-1.136v-.004c.656-.254 1.3-.586 1.925-.988 2.957-1.903 5.461-5.301 6.832-9.286 1.371-3.992 1.586-8.539-.047-12.722a16.404 16.404 0 00-1.496-2.922 17.617 17.617 0 00-1.996-2.543 19.725 19.725 0 00-2.547-2.246c-2.605-1.942-4.988-2.707-7.097-2.586a7.477 7.477 0 00-1.746.312c2.535 1.391 6.632 4.926 7.386 13.45 1.11 12.511-6.425 17.27-10.75 16.386-4.32-.886-5.43-6.867-5.43-6.867s-1.773 3.543-1.55 5.207c.223 1.66-11.59-4.512-13.188-13.176-.949-5.156-.414-9.332.172-11.867zm0 0"/><path fill="#c0392b" d="M164.242 301.879c7.13-.395 43.465-1.996 47.906 6.383 4.446 8.39-19.8 8.68-29.148 2.441.086.016 29.887 4.863 26.7-1.152-3.626-6.84-37.548-5.34-45.04-4.922.258 3.117-.2 6.23-1.18 9.086a23.95 23.95 0 01-.636 1.648c3.172 3.434 19.23 19.32 44.375 18.45 21.32-.739 31.695-7.86 35.488-11.286-3.781-.933-10.445-4.007-14.578-14.093-2.95-7.192-7.277-13.387-13.371-16.985-5.16-3.05-11.645-4.254-19.715-2.644-15.133 3.027-27.793 8.644-31.598 10.437.332.871.594 1.75.797 2.637zm0 0"/><path fill="#922b21" d="M164.242 301.879c7.13-.395 43.465-1.996 47.906 6.383 4.446 8.39-19.8 8.68-29.148 2.441.086.016 29.887 4.863 26.7-1.152-3.626-6.84-37.548-5.34-45.04-4.922a21.465 21.465 0 01-.156 4.86c3.668-.43 11.965-1.227 12.137.324.222 1.992-1.774 2.769 7.425 7.75 9.196 4.98 29.586 4.652 32.356-.333 11.406-20.515-36.984-20.609-52.559-16.77.145.47.27.946.38 1.419zm0 0"/><path fill="#c0392b" d="M230.418 306.738l.453.106c9.633 2.136 19.406-.602 27.102-5.121 7.652-4.493 13.195-10.664 14.46-15.493v-.003a7.36 7.36 0 00.083-.325c1.484-6.675-.836-9.164-2.22-10.027-2.316 3.652-5.917 7.32-10.382 10.438-6.422 4.476-15.238 6.859-24.008 7.421 5.14-2.656 14.317-4.03 22.422-9.687 6.762-4.715 11.344-10.652 12.004-15.5.836-6.168-1.191-9.695-2.547-11.309-3.133 4.996-7.656 9.825-14.148 13.907-24.555 15.445-47.348 5.32-52.246 2.796-4.438 4.434-13.051 8.45-23.38 10.95-8.23 1.988-17.585 3.035-26.796 2.574 1.672.48 3.418 1.355 5.219 2.7a22.685 22.685 0 012.894 2.57 20.269 20.269 0 012.317 2.94c.226.348.437.704.636 1.06 3.93-1.848 16.836-7.575 32.223-10.65 8.797-1.757 15.934-.405 21.664 2.981 6.48 3.829 11.094 10.239 14.25 17.672zm0 0"/><path fill="#922b21" d="M272.723 284.867c1.03-5.898-1.118-8.176-2.426-8.992-2.317 3.652-5.918 7.32-10.383 10.438-6.422 4.476-15.238 6.859-24.008 7.421 0 0 10.82 4.149 24.84-1.054 5.477-2.032 9.297-4.953 11.977-7.813zm-2.282-20.836c-.34-3.453-1.675-5.625-2.656-6.793-3.133 4.996-7.66 9.825-14.148 13.907-24.555 15.445-47.348 5.32-52.246 2.796-4.438 4.434-13.055 8.45-23.38 10.95-8.23 1.988-17.585 3.035-26.796 2.574 1.672.48 3.418 1.355 5.215 2.7a22.165 22.165 0 012.894 2.57 20.303 20.303 0 012.32 2.94c.227.348.438.704.637 1.06 3.93-1.848 16.836-7.575 32.219-10.65.203-.038.406-.077.61-.112 4.43-2.453 6.077-4.446 6.077-4.446s22.497 8.965 43.993 1.66c11.05-3.757 19.578-12.015 25.261-19.16zm0 0"/><path fill="#c0392b" d="M106.57 281.168c2.817 1.355 5.586 3.797 6.63 8.21 1.015 4.29-.09 8.759-2.27 12.985-2.797 5.407-7.387 10.446-11.477 14.137-.375.344-.77.691-1.148 1.012-3.29 2.789-9.489 7.36-17.383 10.441 7.398 1.305 15.887 1.555 23.308-.555 6.352-1.804 11.91-5.363 15.258-11.511a18.852 18.852 0 01-1.894-3.633c-1.117-2.86-1.582-6.129-1.164-9.82.605-5.414 2.757-10.028 5.789-13.075-1.656-2.398-6.996-8.941-15.649-8.191zm0 0"/><path fill="#922b21" d="M106.57 281.168c2.817 1.355 5.586 3.797 6.63 8.21 1.015 4.29-.09 8.759-2.27 12.985-2.797 5.407-7.387 10.446-11.477 14.137-.375.344-.77.691-1.148 1.012-3.29 2.789-9.489 7.36-17.383 10.441 6.781 1.2 14.48 1.508 21.43-.074 16.21-21.977 15.218-37.043 12.511-42.395-1.023-2.023-2.547-3.3-4.09-4.109-1.3-.25-2.703-.34-4.203-.207zm0 0"/><path fill="#fcbd88" d="M53.867 230.395c-.105-2.434-1.355-9.946-11.894-19.625-2.532-2.325-4.914-3.665-7.07-4.25-1.766-.48-3.372-.446-4.762-.032-1.375.407-2.567 1.192-3.512 2.219-.988 1.074-1.711 2.418-2.11 3.883-.949 3.492 1.118 8.476 3.016 13.066.817 1.965 1.606 3.867 2.145 5.614a261.98 261.98 0 012.011 6.937c.5 1.79.926 3.305 1.23 4.32.25-.222.505-.441.763-.656 5.55-4.707 12.332-8.621 20.183-11.476zm0 0"/><path fill="#f2a668" d="M25.672 209.96a9.557 9.557 0 00-1.152 2.63c-.95 3.492 1.117 8.48 3.015 13.066.817 1.969 1.606 3.867 2.145 5.614a261.98 261.98 0 012.011 6.937c.5 1.793.926 3.305 1.23 4.32.25-.222.505-.441.763-.656 3.195-2.71 6.804-5.16 10.785-7.293-.93-4.273-4.028-11.875-14.059-21.09-1.637-1.5-3.219-2.66-4.738-3.527zm0 0"/><path fill="#6e2c00" d="M130.129 145.473c2.898 1.386 8.676 6.863 7.523 13.195-.304.105-8.183-10.996-19.277-3.234l-2.148 1.507c-.07-6.023 1.98-11.16 8.507-12.257 1.715-.29 3.555-.09 5.395.789zm28.187 78.996c-.457.27-.937.5-1.43.691-1.519.582-3.179.781-4.78.473a7.894 7.894 0 01-3.727-1.82c-5.059-4.38-6.277-3.711-8.816-2.313-.965.535-2.086 1.152-3.555 1.727-1.735.675-3.625.89-5.465.687-.664-.07-1.32-.2-1.965-.375-.86.078-4.2.512-6.695 2.684-1.945 1.695-4.781 2.96-8.082 3.289-2.797.281-5.946-.11-9.184-1.477-2.476-1.047-4.312-2.14-5.644-3.113 1.109 3.812 4.27 9.457 13.273 11.816 10.125 2.653 16.25.649 20.418-.718 2.086-.684 3.738-1.223 5.348-1.067 1.281.129 3.144.817 5.547 1.7 6.55 2.417 17.379 6.41 28.086 3.495 10.117-2.75 16.757-10.59 19.824-15.027-5.137 1.598-14.653 4.14-21.645 3.606-6.285-.485-8.812-2.422-10.398-3.641-.528-.406-.863-.664-1.11-.617zm0 0"/><path fill="#5e2804" d="M99.348 226.043c1.382 3.727 4.742 8.559 12.898 10.695 10.125 2.653 16.25.649 20.418-.718 2.086-.684 3.738-1.223 5.344-1.067 1.285.129 3.148.817 5.55 1.7 6.551 2.417 17.38 6.41 28.087 3.495 9.714-2.64 16.226-9.976 19.44-14.484-7.612 4.418-17.019 8.578-23.581 9.145-11.527.996-16.734-6.09-26.984-7.528-10.25-1.441-14.184 8.192-29.754 5.149-5.477-1.07-9.067-3.582-11.418-6.387zm0 0"/><path fill="#6e2c00" d="M128.016 181.102c-.598-.2-1.227-.54-1.868-1.059h-.003c-1.06-.867-1.704-2.043-2-3.305a7.632 7.632 0 01.386-4.586 8.74 8.74 0 00-1.48 1.305c-1.223 1.32-2.164 3.078-2.54 4.926-.32 1.578-.218 3.219.497 4.676.453.921.96 1.609 1.5 2.105.758.707 1.578 1.016 2.347 1.078a4.128 4.128 0 001.774-.254 4.81 4.81 0 001.066-.828 19.18 19.18 0 002.055-2.672c.219-.422.406-.84.566-1.261a4.267 4.267 0 01-2.3-.125zm0 0"/><path fill="#fbfcfc" d="M127.273 177.48c.383.313.739.508 1.059.614.379.125.703.11.965.015 2.043-.742 1.183-5.968-1.024-6.941-.25-.11-.488-.156-.695-.129-.469.066-.95.574-1.308 1.664a5.386 5.386 0 00-.125 2.844c.175.758.543 1.45 1.132 1.93zm0 0"/><path fill="#fbfcfc" d="M116.469 180.906c.71 1.446 1.52 2.535 2.375 3.328.39.364.793.664 1.203.91a10.58 10.58 0 01-.836-1.421c-.93-1.899-1.074-3.98-.676-5.957a12.27 12.27 0 012.953-5.758c2.399-2.594 4.907-3.235 7.035-2.598 1.055.317 1.997.95 2.766 1.82.152.168.297.348.434.536.386.46.718 1.011.972 1.629.258-2.305.008-4.56-.98-6.454-1.707-3.265-3.914-4.5-6.106-4.37-1.164.07-2.359.511-3.5 1.226-1.195.75-2.328 1.797-3.312 3.05-3.016 3.837-4.582 9.465-2.328 14.06zm0 0"/><path fill="#c0392b" d="M127.594 246.418a23.451 23.451 0 004.133 2.953c2.296 1.293 4.773 2.215 7.164 2.7 3.968.8 8.043.07 11.73-1.657a24.97 24.97 0 005.004-3.125c-12.441-7.101-23.906-2.871-28.031-.871zm0 0"/><path fill="#fbfcfc" d="M123.355 240.777c.184.414.387.82.614 1.215a16.59 16.59 0 001.902 2.672c4.43-2.195 17.527-7.258 31.633.969a25.321 25.321 0 001.797-1.93c-6.594-.726-12.488-2.898-16.696-4.45-2.234-.823-3.96-1.46-4.863-1.55h-.004c-1.02-.098-2.43.363-4.218.95-2.56.84-5.813 1.902-10.165 2.124zm0 0"/><path fill="#fcbd88" d="M87.77 262.031c.046-.066.101-.14.156-.219.926-1.28 4.379-6.058-.64-12.351-5.97-7.488-12.493-2.672-13.141-2.16-5.891 5.355-9.348 7.93-13.938 12.793 1.242-5.149 4.723-8.262 9.473-12.5 2.656-2.375 4.277-4.504 4.066-8.403-.105-1.93-.992-3.414-2.328-4.523-1.438-1.188-3.398-1.969-5.508-2.41-3.61-.75-7.582-.496-10.222.426-7.907 2.757-14.7 6.62-20.215 11.296-7.27 6.165-12.313 13.739-14.727 22.06-2.414 8.312-2.215 17.386 1 26.565 2.258 6.457 6.012 12.973 11.399 19.317.515.605.984 1.14 1.41 1.613 12.75 14.078 26.101 16.34 37.297 14.195 11.296-2.164 20.464-8.77 24.664-12.332.468-.394.82-.703 1.086-.941 3.886-3.516 8.242-8.285 10.867-13.36 1.898-3.683 2.875-7.515 2.031-11.09-.79-3.335-2.887-5.237-5.07-6.32-3.223-1.597-5.188-2.019-8.02-.164-4.941 3.239-6.984 5.633-9.87 10.684.546-7.246 4.07-10.477 10.663-14.45 2.805-2.55 3.504-5.343 2.977-7.859-.29-1.382-.946-2.703-1.825-3.867a12.357 12.357 0 00-3.214-2.976c-2.243-1.43-4.72-1.965-6.395-.961-.144.086-.281.16-.41.215-7.055 4.453-8.938 5.386-16.36 13.406 1.594-6.395 7.419-11.004 14.794-15.684zm0 0"/><path fill="#f2a668" d="M87.77 262.031c.046-.066.101-.14.156-.219.91-1.257 4.258-5.89-.387-12.023-2.203.371-5.02 1.504-8.305 4.25-8.199 6.863-6.257 23.676-6.257 23.676s-.602-1.934 2.367-5.125c2.71-3.93 7.176-7.227 12.426-10.559zm-27.563-1.937c1.242-5.149 4.723-8.262 9.473-12.5 2.656-2.375 4.277-4.504 4.066-8.403-.105-1.93-.992-3.414-2.328-4.523a6.12 6.12 0 00-.25-.195c-2.148.836-4.602 2.359-7.113 5.062-7.094 7.64-3.848 20.559-3.848 20.559zm27.332 34.11c.547-7.243 4.07-10.474 10.664-14.446 2.805-2.551 3.504-5.344 2.977-7.86-.227-1.078-.672-2.113-1.274-3.07-2.719.531-6.254 2.078-9.48 6.137-6.426 8.082-2.887 19.242-2.887 19.242zm0 0"/><path fill="#f2a668" d="M20.238 267.953c-1.86 7.785-1.46 16.176 1.508 24.652 2.258 6.457 6.016 12.973 11.402 19.317.512.605.98 1.14 1.407 1.613 12.75 14.078 26.101 16.34 37.297 14.195 11.296-2.164 20.464-8.77 24.668-12.332.464-.394.816-.703 1.082-.941 3.886-3.516 8.242-8.285 10.867-13.36 1.902-3.683 2.875-7.515 2.031-11.09l-.105-.41c-10.715 10.321-37.27 28.708-59.575 16.618-15.765-8.543-25.406-25.856-30.582-38.258zm0 0"/><path fill="#922b21" d="M102.113 255.05c-1.117-.214-7.613-1.296-9.433 2.544a11.359 11.359 0 01-.953 3.23c1.933-.004 4.011.7 5.902 1.903a15.357 15.357 0 013.941 3.644c1.11 1.477 1.942 3.168 2.32 4.965.532 2.531.176 5.242-1.535 7.832 12.098-3.566 19.606 5.062 21.989 8.406a12.83 12.83 0 012.8-1.476 11.59 11.59 0 015.407-.68c2.812.316 5.73 1.66 8.531 4.262 1.656-1.368 3.54-2.278 5.621-2.567l-.523-.054c-10.883-1.235-21.254-4.766-29.008-11.543-5.371-4.692-9.473-10.922-11.598-19-1.066-.278-2.234-.774-3.46-1.465zm0 0"/><path fill="#6e2c00" d="M164.543 169.078c1.39-8.035 13.414-17.508 23.797-15.98 9.07 1.328 11.937 7.28 10.887 14.3-16.536-10.289-32.395.145-34.684 1.68zm0 0"/><path fill="#e5e7e9" d="M183.125 17.973S217.508 6.94 241.551 22.3c24.039 15.363 24.457 28.629 24.457 28.629s-27.535-31.7-82.883-32.957zm0 0" fill-rule="evenodd"/><path fill="#5e2804" d="M265.68 181.336c6.98 6.863 9.418 10.406 9.418 10.406s-6.098-4.539-12.743-8.304c-6.652-3.766-11.195-4.54-11.195-4.54l9.309 8.415s-8.2-2.77-10.969 0c-2.77 2.769-.664 5.757-1.328 6.421-.668.664-3.328 6.641-3.328 6.641l-4.098-2.547s5.762-13.172 6.207-15.055c.442-1.882-2.219-5.644-2.219-5.644l4.875-.887-4.875-8.082c7.477 4.11 14.575 6.914 20.946 13.176zm0 0" fill-rule="evenodd"/><path fill="none" d="M112.09 336.594c-7.305 1.449-11.488 1.062-12.547-1.156l-7.39-15.461-20.067 3.988-.527 16.355c.004 2.707-3.782 4.813-11.352 6.317-4.023.8-7.055 1.168-9.094 1.101-2.023-.086-3.058-.254-3.105-.5l5.367-89.789c-.133-.676 5.555-2.156 17.066-4.445 11.532-2.29 17.368-3.094 17.5-2.418l38.766 81.152c.113.575-1.723 1.418-5.512 2.535-3.793 1.094-6.828 1.868-9.105 2.32zm-40.012-29.266l13.235-2.629-10.848-24.976-.77.152zm0 0" stroke="#000" stroke-width="14.784"/><path fill="none" d="M180.145 330.7c.023.585-3.637 1.019-10.973 1.304-7.317.285-10.992.039-11.02-.734l-1.449-37.38c-.168-4.265-1.66-6.343-4.484-6.234-1.442.059-3.328 1.074-5.66 3.047l1.593 41.078c.035.86-3.617 1.43-10.957 1.715-7.316.281-10.992-.047-11.03-.988l-1.626-41.988-3.2.125c-2.823.109-4.347-2.793-4.577-8.711-.102-2.653.304-5.371 1.222-8.149 1.235-3.816 3.387-5.785 6.461-5.902 3.094-.121 6.106.578 9.032 2.097 2.925 1.52 4.722 2.989 5.382 4.407 5.13-4.907 10.922-7.489 17.383-7.739 6.461-.25 11.735 1.567 15.82 5.45 4.485-4.215 9.977-6.45 16.481-6.703 14.129-.547 21.531 7.78 22.2 24.988l1.51 39.07c.024.586-3.632 1.024-10.972 1.305-7.316.285-10.988.039-11.02-.735l-1.449-37.378c-.164-4.266-1.66-6.34-4.48-6.23-1.547.058-3.477 1.073-5.785 3.05zm0 0" stroke="#000" stroke-width="14.784"/><path fill="none" d="M220.672 242.242c.105-1.02 3.84-1.152 11.207-.394 7.367.761 10.996 1.691 10.883 2.793l-2.559 24.82c3.754-.309 6.39-.383 7.91-.227 17.899 1.844 25.79 13.036 23.676 33.575-1.18 11.425-4.832 19.945-10.965 25.562-6.129 5.613-14.25 7.902-24.367 6.86-10.094-1.04-18.227-4.16-24.398-9.36zm21.828 46.57c-1.457-.148-2.918.176-4.39.97l-2.512 24.41a9.443 9.443 0 003.695 1.171c1.332.137 2.727-.234 4.184-1.117 2.57-1.457 4.175-5.3 4.816-11.523.906-8.782-1.027-13.418-5.793-13.91zm0 0" stroke="#000" stroke-width="14.784"/><path fill="none" d="M284.04 293.133c-1.43-4.692-1.86-8.36-1.294-11 .57-2.637 1.64-4.184 3.215-4.633 5.234-1.059 12.016-.687 20.34 1.105 8.344 1.797 13.812 5.02 16.406 9.668 2.602 4.625 3.078 10.754 1.434 18.383l-4.278 19.848 4.266.918c1.43.308 2.355 1.387 2.77 3.23.437 1.848.34 4.235-.29 7.16-.629 2.926-1.988 5.66-4.078 8.208-2.066 2.527-4.355 3.523-6.87 2.98-4.52-.973-7.9-2.977-10.138-6.004a10.056 10.056 0 01-2.097-4.273c-4.914 4.035-11.43 5.18-19.547 3.43-6.117-1.317-10.8-4.606-14.055-9.868-3.254-5.258-4.242-10.863-2.957-16.816 2.938-13.64 12.578-18.7 28.918-15.18l6.903 1.488.273-1.257c.469-2.192.414-3.668-.168-4.438-.559-.781-2.137-1.453-4.734-2.012-3.192-.687-7.864-1-14.02-.937zm5.077 25.3c-.398 1.84-.199 3.352.598 4.528.793 1.176 1.969 1.934 3.523 2.266 1.555.336 3.09.015 4.606-.965l2.09-9.692-3.5-.754c-4.028-.87-6.47.672-7.317 4.618zm0 0" stroke="#000" stroke-width="14.784"/><path d="M112.087 336.598c-7.312 1.45-11.496 1.055-12.547-1.187l-7.39-15.438-20.047 3.985-.547 16.36c.008 2.71-3.766 4.812-11.328 6.312-4.043.804-7.078 1.168-9.11 1.093-2.023-.07-3.054-.238-3.093-.5l5.375-89.796c-.137-.676 5.55-2.157 17.062-4.438 11.52-2.289 17.348-3.098 17.484-2.422l38.766 81.156c.113.594-1.73 1.446-5.531 2.547-3.793 1.106-6.824 1.883-9.094 2.328zm-40.016-29.28l13.25-2.626-10.859-24.969-.75.157zm0 0" fill="#c32126"/><path d="M180.135 330.682c.031.594-3.617 1.039-10.937 1.328-7.325.281-11 .04-11.032-.734l-1.453-37.375c-.168-4.282-1.664-6.367-4.484-6.266-1.461.063-3.352 1.086-5.672 3.063l1.594 41.109c.03.855-3.617 1.422-10.938 1.703-7.312.281-10.984-.05-11.015-1l-1.625-42-3.22.125c-2.823.117-4.35-2.773-4.577-8.672-.106-2.664.297-5.39 1.203-8.172 1.226-3.82 3.379-5.789 6.453-5.906 3.082-.125 6.094.574 9.031 2.094 2.938 1.512 4.735 2.984 5.39 4.422 5.114-4.926 10.9-7.516 17.36-7.766 6.469-.25 11.754 1.57 15.86 5.453 4.468-4.219 9.953-6.453 16.453-6.703 14.133-.539 21.539 7.797 22.218 25.016l1.5 39.047c.032.593-3.617 1.03-10.937 1.312-7.324.281-11 .04-11.031-.734l-1.453-37.375c-.168-4.282-1.664-6.364-4.485-6.25-1.543.054-3.476 1.07-5.797 3.047zm0 0" fill="#c32126"/><path d="M220.655 242.237c.113-1.02 3.86-1.149 11.234-.39 7.375.76 11.004 1.695 10.89 2.796l-2.562 24.813c3.727-.313 6.364-.391 7.907-.235 17.906 1.844 25.8 13.043 23.687 33.594-1.18 11.418-4.836 19.937-10.969 25.562-6.136 5.614-14.258 7.899-24.36 6.86-10.105-1.043-18.25-4.168-24.437-9.375zm21.828 46.578c-1.45-.156-2.902.168-4.36.969l-2.515 24.422a9.473 9.473 0 003.687 1.156c1.32.137 2.72-.238 4.188-1.125 2.562-1.445 4.164-5.285 4.812-11.516.895-8.781-1.043-13.414-5.812-13.906zm0 0" fill="#c32126"/><path d="M284.055 293.144c-1.449-4.696-1.89-8.364-1.328-11 .57-2.633 1.649-4.176 3.234-4.625 5.239-1.07 12.024-.707 20.36 1.093 8.332 1.793 13.797 5.008 16.39 9.64 2.602 4.638 3.083 10.767 1.438 18.392l-4.281 19.859 4.25.922c1.426.305 2.36 1.383 2.797 3.234.445 1.844.351 4.23-.282 7.156-.636 2.938-1.996 5.665-4.078 8.188-2.074 2.531-4.367 3.523-6.875 2.984-4.523-.968-7.906-2.96-10.156-5.968a10.732 10.732 0 01-2.11-4.282c-4.898 4.02-11.413 5.157-19.546 3.407-6.106-1.313-10.79-4.602-14.047-9.86-3.25-5.258-4.235-10.863-2.953-16.812 2.937-13.645 12.57-18.707 28.906-15.188l6.922 1.485.281-1.282c.469-2.175.41-3.648-.172-4.422-.574-.78-2.156-1.453-4.75-2.015-3.187-.688-7.855-.988-14-.906zm5.063 25.28c-.399 1.845-.2 3.36.593 4.548.801 1.18 1.977 1.937 3.532 2.28 1.55.337 3.086 0 4.61-1l2.093-9.67-3.516-.75c-4.023-.864-6.46.667-7.312 4.593zm0 0" fill="#c32126"/><path fill="none" d="M169.543 315.426c.89-.035 1.5.144 1.828.539.332.394.512.98.543 1.758a8.901 8.901 0 01-.883 4.254c-.648 1.343-1.644 2.453-2.984 3.324-1.344.87-3.004 1.347-4.985 1.43-1.367.054-2.562-.055-3.59-.325a35.167 35.167 0 01-2.972-.937 26.15 26.15 0 00-3.188-.91c-1.16-.266-2.574-.364-4.242-.297-1.707.07-3.312.32-4.816.75-1.5.422-2.692 1.039-3.57 1.855-.88.813-1.293 1.84-1.243 3.082.032.781.27 1.426.72 1.938.448.504.98.746 1.597.718.297.606.347 1.356.148 2.247-.195.882-.617 1.734-1.265 2.558-.653.824-1.5 1.527-2.551 2.113-1.04.582-2.258.903-3.653.961-1.59.063-2.949-.257-4.07-.96a6.974 6.974 0 01-2.566-2.903 9.916 9.916 0 01-.973-3.937c-.11-2.758.695-5.336 2.422-7.735 1.738-2.406 4.348-4.379 7.84-5.918 3.5-1.547 7.793-2.422 12.887-2.629a79.86 79.86 0 014.628-.074c1.274.027 2.47.059 3.594.098 1.13.031 2.356.02 3.672-.035 2.106-.086 3.723-.258 4.852-.524 1.14-.265 2.078-.41 2.82-.441zm-8.61 22.117c1.157-.047 1.93.125 2.317.52.387.394.59.902.617 1.527.028.656-.148 1.36-.527 2.117-.38.754-.992 1.418-1.844 1.984-.851.555-1.953.86-3.312.918-.938.036-1.817.043-2.633.02-.82-.035-1.617-.074-2.399-.117a79.57 79.57 0 01-.75 2.281 81.04 81.04 0 01-.816 2.285c-1.996 5.371-4.473 9.371-7.422 11.996-2.945 2.63-6.242 4.016-9.89 4.164-2.684.11-4.88-.285-6.587-1.172-1.707-.882-2.972-2.062-3.792-3.539-.82-1.484-1.262-3.027-1.325-4.617a11.099 11.099 0 01.782-4.605c.574-1.489 1.43-2.707 2.558-3.668 1.13-.965 2.469-1.48 4.027-1.543.579-.024.875.195.895.66.05 1.289.598 2.312 1.633 3.07 1.047.754 2.41 1.098 4.09 1.031 1.507-.062 3.148-.664 4.925-1.808 1.79-1.149 3.352-2.953 4.7-5.422a11.885 11.885 0 00-.832-.05 11.184 11.184 0 00-.809.003c-.703.027-1.219-.156-1.547-.55-.32-.395-.492-.9-.52-1.516-.035-.864.208-1.586.727-2.168.528-.582 1.39-.895 2.598-.946l2.445-.097c.445-1.387.887-2.77 1.313-4.145.43-1.375.87-2.676 1.324-3.898.348-1.031.836-1.774 1.465-2.227.625-.453 1.367-.695 2.218-.73 1.282-.051 2.137.199 2.567.75.433.543.512 1.304.238 2.285a110.734 110.734 0 01-1.043 3.86 212.24 212.24 0 01-1.105 3.695c1.242-.09 2.347-.164 3.312-.223a147.28 147.28 0 012.403-.125zm32.184 6.875c.211-.36.574-.504 1.078-.43.516.074.965.27 1.352.59.383.317.465.711.246 1.184-.492 1.191-1.152 2.422-1.973 3.699a11.63 11.63 0 01-3.144 3.25c-1.266.887-2.852 1.367-4.758 1.445l-.7.028c-1.35 2.039-3.003 3.695-4.956 4.96-1.953 1.266-4.02 1.942-6.2 2.032-2.597.105-4.785-.68-6.562-2.356-1.777-1.687-2.73-4.039-2.852-7.066-.09-2.18.22-4.422.926-6.719a23.318 23.318 0 013.086-6.422c1.363-1.984 2.988-3.597 4.875-4.843 1.899-1.243 4.012-1.915 6.348-2.008 1.59-.067 3.043.199 4.347.793 1.305.582 2.368 1.597 3.188 3.047.816 1.441 1.277 3.386 1.375 5.843a20.85 20.85 0 01-.625 6.024l.398-.016a4.863 4.863 0 002.418-.77c.762-.476 1.473-1.23 2.133-2.265zm-16.215 4.562c.97-.039 1.809-.363 2.524-.972a6.38 6.38 0 001.664-2.203c.394-.852.574-1.688.539-2.504-.031-.852-.313-1.567-.84-2.145-.527-.586-1.355-.855-2.484-.812a3.99 3.99 0 00-2.442.926 5.637 5.637 0 00-1.61 2.132c-.374.852-.542 1.703-.507 2.555.035.855.297 1.586.785 2.191.492.598 1.281.875 2.371.832zm43.938-5.683c.215-.36.574-.504 1.082-.43.515.074.965.27 1.348.586.382.317.464.715.246 1.188-.493 1.187-1.149 2.421-1.973 3.699a11.511 11.511 0 01-3.145 3.246c-1.265.887-2.851 1.371-4.757 1.45l-.696.026c-1.351 2.04-3.004 3.692-4.957 4.958-1.953 1.27-4.02 1.945-6.203 2.035-2.598.101-4.785-.684-6.562-2.36-1.778-1.683-2.727-4.039-2.852-7.062-.086-2.184.223-4.422.926-6.719a23.294 23.294 0 013.09-6.426c1.363-1.98 2.988-3.593 4.875-4.84 1.894-1.246 4.011-1.914 6.343-2.007 1.594-.067 3.043.199 4.348.789 1.309.586 2.371 1.601 3.188 3.05.82 1.438 1.277 3.387 1.375 5.844a20.743 20.743 0 01-.625 6.024l.398-.02c.856-.031 1.66-.289 2.422-.766.758-.476 1.469-1.234 2.129-2.265zm-16.215 4.558c.969-.039 1.812-.363 2.527-.968a6.53 6.53 0 001.664-2.207c.391-.852.57-1.684.54-2.5-.036-.856-.317-1.57-.844-2.145-.528-.586-1.356-.86-2.48-.812-.93.039-1.747.347-2.442.925a5.614 5.614 0 00-1.61 2.13c-.375.85-.546 1.702-.511 2.558.035.851.297 1.582.789 2.191.488.598 1.277.875 2.367.828zm22.324 11.18c-2.285.09-3.996-.637-5.129-2.187-1.136-1.551-1.754-3.493-1.847-5.825-.086-2.171.129-4.472.644-6.906a25.982 25.982 0 012.559-6.898c1.183-2.168 2.687-3.957 4.511-5.371 1.833-1.422 3.993-2.184 6.477-2.286 1.164-.046 2.07.055 2.719.305.656.238 1.156.535 1.504.895.347.355.64.675.879.96.25.286.566.419.957.403.312-.012.55-.375.71-1.082.172-.711.419-1.762.743-3.152.332-1.399.87-3.106 1.617-5.121.656-1.813 1.328-3.188 2.012-4.13.683-.94 1.347-1.578 1.988-1.917.648-.34 1.27-.524 1.86-.547 1.003-.04 1.69.43 2.066 1.414.37.972.199 2.308-.508 4.008l-5.906 17.109c-.88 2.172-1.176 3.816-.883 4.938.3 1.117 1.094 1.648 2.375 1.597 1.004-.039 1.867-.336 2.586-.887.715-.562 1.351-1.32 1.902-2.273.285-.477.672-.656 1.16-.543a2.36 2.36 0 011.254.73c.348.376.434.762.262 1.16a165.725 165.725 0 00-2.066 4.614 45.178 45.178 0 01-2.465 4.86c-.907 1.546-1.961 2.843-3.164 3.886-1.204 1.04-2.618 1.59-4.25 1.656-1.86.075-3.27-.683-4.239-2.28-.957-1.595-1.328-3.603-1.113-6.024l-.227.007c-1.109 2.422-2.433 4.489-3.98 6.204-1.547 1.714-3.215 2.609-5.008 2.683zm4.82-12.277c.965-.04 1.81-.363 2.524-.973a6.477 6.477 0 001.664-2.203c.39-.852.57-1.687.54-2.5-.036-.855-.317-1.57-.845-2.148-.527-.586-1.351-.856-2.48-.809a3.934 3.934 0 00-2.442.926 5.555 5.555 0 00-1.609 2.129c-.375.851-.547 1.703-.512 2.558.036.852.297 1.582.79 2.188.488.597 1.277.875 2.37.832zm0 0" stroke="#000" stroke-width="6.634"/><path d="M169.547 315.427c.895-.039 1.504.137 1.828.531.32.399.5.985.532 1.766a8.87 8.87 0 01-.875 4.25c-.649 1.344-1.64 2.453-2.985 3.328-1.343.867-3.007 1.34-4.984 1.422-1.367.055-2.563-.05-3.594-.312a33.173 33.173 0 01-2.984-.938 26.511 26.511 0 00-3.188-.922c-1.148-.27-2.554-.367-4.218-.297-1.711.063-3.313.313-4.813.75-1.5.43-2.695 1.047-3.578 1.86-.887.812-1.305 1.843-1.25 3.093.031.774.27 1.415.719 1.922.445.512.984.75 1.61.72.288.616.335 1.366.14 2.25-.2.874-.621 1.726-1.266 2.546-.648.824-1.496 1.531-2.547 2.125-1.054.586-2.277.902-3.672.953-1.586.063-2.937-.258-4.062-.969-1.117-.707-1.969-1.672-2.563-2.89a10.055 10.055 0 01-.968-3.922c-.106-2.758.707-5.344 2.437-7.75 1.727-2.406 4.336-4.379 7.828-5.922 3.5-1.55 7.797-2.426 12.89-2.625 1.821-.082 3.364-.11 4.626-.078 1.258.031 2.457.062 3.594.094 1.132.03 2.363.023 3.687-.032 2.094-.082 3.707-.254 4.844-.515 1.133-.258 2.07-.407 2.812-.438zm-8.609 22.11c1.164-.04 1.941.136 2.328.53.383.388.586.891.61 1.516.03.657-.149 1.368-.532 2.125-.386.75-1.008 1.407-1.86 1.97-.855.562-1.96.87-3.312.921a35.38 35.38 0 01-2.64.031 70.74 70.74 0 01-2.36-.125c-.242.75-.496 1.516-.765 2.297a74.435 74.435 0 01-.813 2.281c-2 5.356-4.48 9.352-7.437 11.985-2.95 2.633-6.246 4.023-9.89 4.172-2.68.113-4.872-.274-6.579-1.157-1.711-.886-2.973-2.066-3.797-3.546-.82-1.489-1.266-3.032-1.328-4.625-.063-1.582.2-3.114.781-4.594.586-1.488 1.438-2.711 2.563-3.672 1.125-.969 2.468-1.488 4.031-1.563.582-.019.883.204.906.672.051 1.282.598 2.305 1.64 3.063 1.04.75 2.391 1.094 4.048 1.031 1.52-.062 3.172-.66 4.953-1.797 1.789-1.144 3.36-2.953 4.703-5.422-.273-.03-.547-.05-.828-.062a14.632 14.632 0 00-.828 0c-.7.031-1.215-.145-1.547-.531-.324-.395-.496-.907-.516-1.532-.043-.851.196-1.57.719-2.156.531-.594 1.398-.91 2.61-.953l2.437-.11c.457-1.382.898-2.757 1.328-4.124a64.883 64.883 0 011.344-3.907c.343-1.03.82-1.77 1.437-2.218.614-.457 1.348-.704 2.203-.735 1.282-.05 2.141.2 2.578.75.438.543.516 1.309.235 2.297a84.495 84.495 0 01-1.031 3.86 277.917 277.917 0 01-1.11 3.671c1.25-.082 2.36-.148 3.328-.203.97-.062 1.766-.11 2.391-.14zm32.172 6.877c.22-.351.583-.488 1.094-.406.508.074.957.266 1.344.578.383.313.461.711.235 1.188-.493 1.187-1.149 2.422-1.97 3.703a11.347 11.347 0 01-3.124 3.234c-1.274.887-2.86 1.367-4.766 1.438l-.703.031c-1.355 2.043-3.012 3.7-4.969 4.969-1.949 1.262-4.007 1.937-6.172 2.031-2.605.106-4.804-.68-6.593-2.36-1.782-1.687-2.73-4.038-2.844-7.062-.094-2.176.21-4.414.922-6.719a23.196 23.196 0 013.11-6.437c1.362-1.977 2.987-3.586 4.874-4.828 1.895-1.238 4.008-1.906 6.344-2 1.594-.07 3.039.183 4.344.765 1.3.586 2.363 1.606 3.187 3.063.82 1.45 1.281 3.398 1.375 5.844a20.889 20.889 0 01-.625 6.03l.406-.015c.852-.039 1.66-.3 2.422-.781.758-.477 1.461-1.234 2.11-2.266zm-16.202 4.563c.968-.04 1.804-.363 2.515-.969a6.26 6.26 0 001.672-2.187c.395-.864.578-1.703.547-2.516-.043-.852-.328-1.57-.86-2.156-.523-.582-1.343-.848-2.468-.797-.938.031-1.758.336-2.453.906a5.694 5.694 0 00-1.61 2.14c-.375.856-.543 1.712-.5 2.563.032.856.29 1.586.782 2.188.488.594 1.28.87 2.375.828zm0 0" fill="#f4ac23"/><path d="M220.835 343.292c.219-.352.582-.488 1.094-.406.507.074.957.265 1.343.578.383.312.461.71.235 1.187-.492 1.188-1.149 2.422-1.969 3.703a11.347 11.347 0 01-3.125 3.235c-1.273.886-2.86 1.367-4.766 1.437l-.703.031c-1.355 2.043-3.011 3.7-4.968 4.97-1.95 1.261-4.008 1.937-6.172 2.03-2.606.106-4.805-.68-6.594-2.359-1.781-1.687-2.73-4.039-2.844-7.062-.094-2.176.211-4.414.922-6.72a23.196 23.196 0 013.11-6.437c1.363-1.976 2.988-3.586 4.874-4.828 1.895-1.238 4.008-1.906 6.344-2 1.594-.07 3.04.184 4.344.766 1.3.586 2.363 1.605 3.187 3.062.82 1.45 1.282 3.399 1.375 5.844a20.889 20.889 0 01-.625 6.031l.407-.015a4.922 4.922 0 002.422-.781c.757-.477 1.46-1.235 2.109-2.266zm-16.203 4.562c.969-.039 1.804-.363 2.515-.968a6.26 6.26 0 001.672-2.188c.395-.863.578-1.703.547-2.515-.043-.852-.328-1.57-.86-2.157-.523-.582-1.343-.847-2.468-.797-.937.032-1.758.336-2.453.907a5.694 5.694 0 00-1.61 2.14c-.374.856-.542 1.711-.5 2.563.032.855.29 1.586.782 2.187.488.594 1.281.871 2.375.828zm0 0" fill="#f4ac23"/><path d="M226.965 359.029c-2.304.093-4.023-.63-5.156-2.172-1.125-1.55-1.734-3.492-1.828-5.828-.094-2.164.121-4.469.64-6.907a25.908 25.908 0 012.563-6.906c1.176-2.164 2.676-3.957 4.5-5.375 1.832-1.414 3.992-2.172 6.484-2.265 1.165-.051 2.07.043 2.72.28.655.243 1.155.544 1.5.907.343.356.632.672.874.953.25.281.57.414.969.39.312-.007.547-.362.703-1.062.164-.707.414-1.757.75-3.156.344-1.394.879-3.101 1.61-5.125.664-1.812 1.335-3.187 2.015-4.125.688-.945 1.348-1.586 1.984-1.922.645-.332 1.258-.515 1.844-.547 1.008-.03 1.696.446 2.063 1.422.375.969.21 2.309-.485 4.016L244.81 338.7c-.875 2.18-1.168 3.828-.875 4.953.29 1.117 1.078 1.648 2.36 1.593 1.007-.039 1.867-.335 2.578-.89.718-.563 1.351-1.32 1.906-2.281.289-.47.68-.645 1.172-.532.488.118.906.36 1.25.735.351.367.437.75.25 1.156a211.73 211.73 0 00-2.047 4.61 45.726 45.726 0 01-2.469 4.859c-.906 1.554-1.965 2.851-3.172 3.89-1.199 1.032-2.61 1.586-4.234 1.657-1.867.074-3.281-.688-4.25-2.282-.961-1.593-1.328-3.601-1.11-6.03h-.234c-1.117 2.429-2.45 4.5-4 6.218-1.543 1.71-3.2 2.601-4.969 2.672zm4.797-12.266c.977-.039 1.82-.363 2.531-.969a6.53 6.53 0 001.657-2.203c.394-.851.578-1.687.547-2.5-.043-.851-.329-1.57-.86-2.156-.523-.582-1.344-.852-2.469-.813a4.037 4.037 0 00-2.437.922 5.551 5.551 0 00-1.61 2.125c-.374.856-.542 1.711-.5 2.563.032.855.29 1.586.782 2.187.488.606 1.273.887 2.36.844zm0 0" fill="#f4ac23"/></svg>